<svg width="25" height="25" viewBox="0 0 25 25" fill="none" xmlns="http://www.w3.org/2000/svg">
<path d="M19.8101 21.5H5.18994C4.25619 21.5 3.5 20.7431 3.5 19.8101V5.18994C3.5 4.25619 4.25619 3.5 5.18994 3.5H19.8101C20.7431 3.5 21.5 4.25619 21.5 5.18994V19.8101C21.5 20.7431 20.7431 21.5 19.8101 21.5Z" fill="#FFE300"/>
<path d="M13.0771 14.9749H12.1447V10.0244H13.0771V14.9749ZM15.5145 12.4997C16.3186 11.9696 16.8493 11.0595 16.8493 10.0245C16.8493 8.38855 15.5226 7.0625 13.8867 7.0625H8.92149C8.82629 7.0625 8.75 7.1388 8.75 7.23399V17.7655C8.75 17.8607 8.8263 17.9376 8.92149 17.9376H13.8867C15.5226 17.9376 16.8493 16.6116 16.8493 14.975C16.8493 13.94 16.3186 13.029 15.5145 12.4997Z" fill="#1C1C1C"/>
</svg>
